<svg width="97" height="97" viewBox="0 0 97 97" fill="none" xmlns="http://www.w3.org/2000/svg">
<circle cx="48.6112" cy="48.3145" r="48" fill="#F36C21"/>
<path d="M62.4107 58.3145H60.5517C60.2933 58.3053 60.0492 58.1941 59.8727 58.0051C59.6963 57.8161 59.6021 57.5648 59.6107 57.3065V48.3225C59.6021 48.0641 59.6963 47.8128 59.8727 47.6238C60.0492 47.4348 60.2933 47.3236 60.5517 47.3145H73.2427C73.2932 47.3162 73.3429 47.3281 73.3888 47.3492C73.4348 47.3703 73.476 47.4004 73.5103 47.4376C73.5445 47.4748 73.571 47.5184 73.5883 47.5659C73.6055 47.6135 73.6131 47.664 73.6107 47.7145V56.3145C73.6277 56.8271 73.4407 57.3255 73.0907 57.7005C72.7407 58.0754 72.2563 58.2962 71.7437 58.3145H68.9437" stroke="white" stroke-width="2" stroke-miterlimit="10"/>
<path d="M31.6107 33.3145H57.6107C58.1412 33.3145 58.6499 33.5252 59.0249 33.9002C59.4 34.2753 59.6107 34.784 59.6107 35.3145V50.3145H29.6107V35.3145C29.6107 34.784 29.8214 34.2753 30.1965 33.9002C30.5716 33.5252 31.0803 33.3145 31.6107 33.3145Z" stroke="white" stroke-width="2" stroke-miterlimit="10"/>
<path d="M23.6107 41.3145H38.6107" stroke="white" stroke-width="2" stroke-linecap="round" stroke-linejoin="round"/>
<path d="M24.6107 44.3145H39.6107" stroke="white" stroke-width="2" stroke-linecap="round" stroke-linejoin="round"/>
<path d="M27.6107 47.3145H43.6107" stroke="white" stroke-width="2" stroke-linecap="round" stroke-linejoin="round"/>
<path d="M29.6107 54.3145H32.6107" stroke="white" stroke-width="2" stroke-linecap="round" stroke-linejoin="round"/>
<path d="M59.6107 54.3145H50.6107" stroke="white" stroke-width="2" stroke-linecap="round" stroke-linejoin="round"/>
<path d="M62.6107 50.3145H63.6107" stroke="white" stroke-width="2" stroke-linecap="round" stroke-linejoin="round"/>
<path d="M66.1107 63.3145C68.0437 63.3145 69.6107 61.7474 69.6107 59.8145C69.6107 57.8815 68.0437 56.3145 66.1107 56.3145C64.1777 56.3145 62.6107 57.8815 62.6107 59.8145C62.6107 61.7474 64.1777 63.3145 66.1107 63.3145Z" stroke="white" stroke-width="2" stroke-miterlimit="10"/>
<path d="M73.5927 47.0025C73.6064 47.0383 73.611 47.0769 73.606 47.1149C73.6009 47.1529 73.5865 47.1891 73.5639 47.2201C73.5414 47.2511 73.5114 47.276 73.4768 47.2924C73.4422 47.3089 73.404 47.3165 73.3657 47.3145H59.9657C59.8714 47.3139 59.7811 47.2761 59.7146 47.2092C59.6481 47.1423 59.6107 47.0518 59.6107 46.9575V40.6735C59.611 40.5781 59.649 40.4868 59.7165 40.4195C59.784 40.3522 59.8754 40.3145 59.9707 40.3145H70.2587C70.3903 40.3145 70.5191 40.353 70.6292 40.4251C70.7393 40.4972 70.826 40.5998 70.8787 40.7205L73.5927 47.0025Z" stroke="white" stroke-width="2" stroke-miterlimit="10"/>
<path d="M37.1107 63.3145C39.0437 63.3145 40.6107 61.7474 40.6107 59.8145C40.6107 57.8815 39.0437 56.3145 37.1107 56.3145C35.1777 56.3145 33.6107 57.8815 33.6107 59.8145C33.6107 61.7474 35.1777 63.3145 37.1107 63.3145Z" stroke="white" stroke-width="2" stroke-miterlimit="10"/>
<path d="M33.6107 58.3145H31.6107C31.0803 58.3145 30.5716 58.1037 30.1965 57.7287C29.8214 57.3536 29.6107 56.8449 29.6107 56.3145V50.3145H59.6107V58.3145H40.6107" stroke="white" stroke-width="2" stroke-miterlimit="10"/>
<path d="M69.6107 54.3145H73.6107" stroke="white" stroke-width="2" stroke-linecap="round" stroke-linejoin="round"/>
</svg>
