<svg width="70" height="71" viewBox="0 0 70 71" fill="none" xmlns="http://www.w3.org/2000/svg">
<mask id="mask0" style="mask-type:alpha" maskUnits="userSpaceOnUse" x="0" y="0" width="70" height="71">
<rect y="0.412354" width="70" height="70" fill="#C4C4C4"/>
</mask>
<g mask="url(#mask0)">
<path fill-rule="evenodd" clip-rule="evenodd" d="M27.6496 43.8641V48.8881H59.4954C60.8519 48.8881 61.9515 47.7882 61.9515 46.4197V14.6045C61.9515 13.2412 60.8748 12.1361 59.4954 12.1361H10.5046C9.14813 12.1361 8.04847 13.236 8.04847 14.6045V46.4197C8.04847 47.783 9.1252 48.8881 10.5046 48.8881H15.3989V43.8641C13.8832 42.3174 12.9487 40.1991 12.9487 37.8625C12.9487 33.1264 16.7881 29.287 21.5242 29.287C26.2603 29.287 30.0997 33.1264 30.0997 37.8625C30.0997 40.1991 29.1652 42.3174 27.6496 43.8641ZM17.849 45.6128V55.2584L21.5242 51.5833L25.1994 55.2584V45.6128C24.0855 46.1419 22.8395 46.438 21.5242 46.438C20.209 46.438 18.9629 46.1419 17.849 45.6128ZM15.3989 51.3383H10.5107C7.79617 51.3383 5.59833 49.1442 5.59833 46.4377V14.5865C5.59833 11.8667 7.79768 9.68591 10.5107 9.68591H59.4893C62.2038 9.68591 64.4017 11.88 64.4017 14.5865V46.4377C64.4017 49.1575 62.2023 51.3383 59.4893 51.3383H27.6496V61.1388L21.5242 55.0135L15.3989 61.1388V51.3383ZM12.9487 21.9366V24.3867H57.0513V21.9366H12.9487ZM35 29.287V31.7372H57.0513V29.287H35ZM42.3504 36.6374V39.0876H57.0513V36.6374H42.3504ZM21.5242 43.9879C24.9072 43.9879 27.6496 41.2455 27.6496 37.8625C27.6496 34.4796 24.9072 31.7372 21.5242 31.7372C18.1413 31.7372 15.3989 34.4796 15.3989 37.8625C15.3989 41.2455 18.1413 43.9879 21.5242 43.9879Z" fill="#F36C21"/>
</g>
</svg>
