<svg width="96" height="97" viewBox="0 0 96 97" fill="none" xmlns="http://www.w3.org/2000/svg">
<circle cx="48" cy="48.3145" r="48" fill="#F36C21"/>
<path d="M26.547 60.9335H52.4693V69.663L57.8325 66.4451L63.1958 69.663V60.9335H69.4529V26.9663H26.547V60.9335ZM61.6449 54.8677C61.5645 54.949 61.4787 55.0241 61.3937 55.1001C61.3455 55.143 61.3008 55.1886 61.2507 55.2297C61.1953 55.2762 61.1363 55.3155 61.0791 55.3593C60.3256 55.9358 59.4174 56.3193 58.4261 56.4292C58.41 56.431 58.3939 56.4346 58.3769 56.4364C58.1972 56.4543 58.0149 56.4641 57.8308 56.4641C57.6466 56.4641 57.4643 56.4543 57.2846 56.4364C57.2685 56.4346 57.2524 56.431 57.2354 56.4292C56.2441 56.3193 55.3369 55.9358 54.5824 55.3593C54.5252 55.3155 54.4662 55.2753 54.4108 55.2297C54.3616 55.1886 54.316 55.143 54.2678 55.1001C54.1829 55.0241 54.0979 54.949 54.0166 54.8677C53.0593 53.8987 52.4657 52.5686 52.4657 51.1009C52.4657 48.143 54.8711 45.7376 57.829 45.7376C60.7868 45.7376 63.1922 48.143 63.1922 51.1009C63.1958 52.5677 62.6031 53.8978 61.6449 54.8677ZM61.408 66.5059L57.8325 64.3606L54.2571 66.5059V60.9335V57.2954C54.2874 57.3133 54.3214 57.3249 54.3527 57.3419C54.5896 57.4742 54.8336 57.5958 55.0857 57.7012C55.0964 57.7057 55.108 57.7093 55.1196 57.7137C55.9572 58.0588 56.8725 58.2519 57.8334 58.2519C58.7944 58.2519 59.7097 58.0588 60.5472 57.7137C60.558 57.7093 60.5696 57.7057 60.5812 57.7012C60.8333 57.5958 61.0773 57.4751 61.3142 57.3419C61.3455 57.3249 61.3794 57.3133 61.4098 57.2954V60.9335V66.5059H61.408ZM28.3347 28.7541H67.6651V59.1457H63.1958V55.8152C64.3051 54.5548 64.9835 52.9074 64.9835 51.1009C64.9835 47.158 61.7754 43.9499 57.8325 43.9499C53.8897 43.9499 50.6816 47.158 50.6816 51.1009C50.6816 52.9074 51.36 54.5548 52.4693 55.8152V59.1457H28.3347V28.7541Z" fill="white"/>
<path d="M59.6203 32.3295H36.3797V34.1173H59.6203V32.3295Z" fill="white"/>
<path d="M55.151 37.6927H40.849V39.4805H55.151V37.6927Z" fill="white"/>
<path d="M41.7429 53.7825H31.9103V55.5702H41.7429V53.7825Z" fill="white"/>
</svg>
