<svg width="70" height="71" viewBox="0 0 70 71" fill="none" xmlns="http://www.w3.org/2000/svg">
<mask id="mask0" style="mask-type:alpha" maskUnits="userSpaceOnUse" x="0" y="0" width="70" height="71">
<rect y="0.412109" width="70" height="70" fill="#C4C4C4"/>
</mask>
<g mask="url(#mask0)">
<path d="M56.9713 16.886L35.8273 8.0776C35.2976 7.857 34.7022 7.85689 34.1727 8.0776L13.0287 16.886C12.2234 17.2216 12.1183 17.5906 12.1183 18.4655V29.1733C12.1183 43.9173 20.9997 57.1799 34.6045 62.7516C35.127 62.9656 34.8728 62.9656 35.3955 62.7516C49 57.18 57.8816 43.9174 57.8816 29.1733V18.4655C57.8816 17.5906 57.7767 17.2216 56.9713 16.886ZM53.9864 29.1733C53.9864 41.7072 46.6507 53.2455 35 58.3959C23.6605 53.3831 16.0135 42.0469 16.0135 29.1733V19.9107L35 12.0011L53.9864 19.9107V29.1733ZM32.6152 36.4704L41.8888 27.1656C42.7313 26.3202 44.0974 26.3201 44.94 27.1656C45.7826 28.011 45.7825 29.3817 44.9399 30.2271L34.1408 41.0626C33.2981 41.9082 31.932 41.9079 31.0896 41.0626L25.0599 35.0126C24.2173 34.1671 24.2173 32.7964 25.0599 31.951C25.9026 31.1057 27.2686 31.1056 28.1111 31.951L32.6152 36.4704Z" fill="#F36C21"/>
</g>
</svg>
