<svg width="96" height="97" viewBox="0 0 96 97" fill="none" xmlns="http://www.w3.org/2000/svg">
<circle cx="48" cy="48.3145" r="48" fill="#F36C21"/>
<path d="M69.1949 24.5596H26.8149C26.1449 24.5596 25.4849 24.8396 25.0149 25.3096C24.5349 25.7896 24.2549 26.4496 24.2549 27.1196C24.2549 28.5296 25.4049 29.6796 26.8249 29.6796H26.9949V59.6496C26.9949 60.0596 27.3349 60.3996 27.7449 60.3996H47.2549V66.7296L42.6149 70.7496C42.3049 71.0196 42.2649 71.4896 42.5349 71.8096C42.6849 71.9796 42.8949 72.0696 43.1049 72.0696C43.2749 72.0696 43.4549 72.0096 43.5949 71.8896L47.2549 68.7196V71.3196C47.2549 71.7296 47.5949 72.0696 48.0049 72.0696C48.4149 72.0696 48.7549 71.7296 48.7549 71.3196V68.7196L52.4149 71.8896C52.5549 72.0096 52.7349 72.0696 52.9049 72.0696C53.1149 72.0696 53.3249 71.9796 53.4749 71.8096C53.7449 71.4996 53.7149 71.0196 53.3949 70.7496L48.7549 66.7296V60.3996H68.2649C68.6749 60.3996 69.0149 60.0596 69.0149 59.6496V29.6796H69.1949C69.8649 29.6796 70.5249 29.4096 70.9949 28.9296C71.4749 28.4596 71.7549 27.7996 71.7449 27.1196C71.7549 25.7096 70.6049 24.5596 69.1949 24.5596ZM69.9449 27.8696C69.7349 28.0796 69.4849 28.1796 69.1949 28.1796H36.0449C35.6349 28.1796 35.2949 28.5196 35.2949 28.9296C35.2949 29.3496 35.6349 29.6796 36.0449 29.6796H67.5249V58.8996H28.4949V29.6796H35.6337C36.0437 29.6796 36.3837 29.3496 36.3837 28.9296C36.3837 28.5196 36.0437 28.1796 35.6337 28.1796H26.8249C26.2349 28.1796 25.7649 27.7096 25.7549 27.1196C25.7649 26.8296 25.8649 26.5796 26.0749 26.3696C26.2849 26.1696 26.5349 26.0596 26.8249 26.0596H69.1949C69.7849 26.0596 70.2549 26.5396 70.2549 27.1196C70.2549 27.4096 70.1549 27.6596 69.9449 27.8696Z" fill="white"/>
<path d="M34.0449 29.6796C34.4591 29.6796 34.7949 29.3438 34.7949 28.9296C34.7949 28.5154 34.4591 28.1796 34.0449 28.1796C33.6307 28.1796 33.2949 28.5154 33.2949 28.9296C33.2949 29.3438 33.6307 29.6796 34.0449 29.6796Z" fill="white"/>
<path d="M29.9249 40.7796C29.9249 45.6896 33.9149 49.6796 38.8249 49.6796C43.7349 49.6796 47.7249 45.6896 47.7249 40.7796C47.7249 35.8696 43.7349 31.8796 38.8249 31.8796C33.9149 31.8796 29.9249 35.8696 29.9249 40.7796ZM46.1849 40.0296H39.5749V33.4196C43.0549 33.7696 45.8349 36.5496 46.1849 40.0296ZM38.0749 33.4196V40.7796C38.0749 41.1896 38.4149 41.5296 38.8249 41.5296H46.1849C45.8049 45.2596 42.6549 48.1796 38.8249 48.1796C34.7449 48.1796 31.4249 44.8596 31.4249 40.7796C31.4249 36.9496 34.3449 33.7896 38.0749 33.4196Z" fill="white"/>
<path d="M45.5649 50.9496H33.3349C32.9249 50.9496 32.5849 51.2896 32.5849 51.6996C32.5849 52.1096 32.9249 52.4496 33.3349 52.4496H45.5549C45.9649 52.4496 46.3049 52.1096 46.3049 51.6996C46.3049 51.2896 45.9749 50.9496 45.5649 50.9496Z" fill="white"/>
<path d="M45.5649 53.5896H33.3349C32.9249 53.5896 32.5849 53.9296 32.5849 54.3396C32.5849 54.7496 32.9249 55.0896 33.3349 55.0896H45.5549C45.9649 55.0896 46.3049 54.7496 46.3049 54.3396C46.3049 53.9296 45.9749 53.5896 45.5649 53.5896Z" fill="white"/>
<path d="M45.5649 56.2196H33.3349C32.9249 56.2196 32.5849 56.5596 32.5849 56.9696C32.5849 57.3796 32.9249 57.7196 33.3349 57.7196H45.5549C45.9649 57.7196 46.3049 57.3796 46.3049 56.9696C46.3049 56.5596 45.9749 56.2196 45.5649 56.2196Z" fill="white"/>
<path d="M60.3449 44.6196C59.1549 44.6196 58.1949 43.6496 58.1949 42.4696C58.1949 42.0596 57.8549 41.7196 57.4449 41.7196C57.0349 41.7196 56.6949 42.0596 56.6949 42.4696C56.6949 44.2296 57.9449 45.6996 59.5949 46.0396V46.8596C59.5949 47.2696 59.9349 47.6096 60.3449 47.6096C60.7549 47.6096 61.0949 47.2696 61.0949 46.8596V46.0396C62.7449 45.6896 63.9949 44.2196 63.9949 42.4696C63.9949 40.4596 62.3549 38.8196 60.3449 38.8196C59.1549 38.8196 58.1949 37.8496 58.1949 36.6696C58.1949 35.4896 59.1649 34.5196 60.3449 34.5196C61.5249 34.5196 62.4949 35.4896 62.4949 36.6696C62.4949 37.0796 62.8349 37.4196 63.2449 37.4196C63.6549 37.4196 63.9949 37.0796 63.9949 36.6696C63.9949 34.9096 62.7449 33.4396 61.0949 33.0996V32.2596C61.0949 31.8496 60.7549 31.5096 60.3449 31.5096C59.9349 31.5096 59.5949 31.8496 59.5949 32.2596V33.0796C57.9349 33.4296 56.6949 34.8996 56.6949 36.6496C56.6949 38.6596 58.3349 40.2996 60.3449 40.2996C61.5349 40.2996 62.4949 41.2696 62.4949 42.4496C62.4949 43.6296 61.5349 44.6196 60.3449 44.6196Z" fill="white"/>
</svg>
