<svg width="96" height="97" viewBox="0 0 96 97" fill="none" xmlns="http://www.w3.org/2000/svg">
<circle cx="48" cy="48.3145" r="48" fill="#F36C21"/>
<path d="M45.609 43.4316H37C36.8448 43.4316 36.6916 43.4678 36.5528 43.5372C36.4139 43.6066 36.2931 43.7074 36.2 43.8316L24.2 59.8316C24.0886 59.9802 24.0207 60.1569 24.004 60.3418C23.9874 60.5268 24.0225 60.7127 24.1056 60.8789C24.1886 61.045 24.3163 61.1847 24.4743 61.2823C24.6322 61.3799 24.8143 61.4316 25 61.4316H47V67.4316H45C44.7348 67.4316 44.4804 67.537 44.2929 67.7245C44.1054 67.9121 44 68.1664 44 68.4316C44 68.6969 44.1054 68.9512 44.2929 69.1387C44.4804 69.3263 44.7348 69.4316 45 69.4316H51C51.2652 69.4316 51.5196 69.3263 51.7071 69.1387C51.8946 68.9512 52 68.6969 52 68.4316C52 68.1664 51.8946 67.9121 51.7071 67.7245C51.5196 67.537 51.2652 67.4316 51 67.4316H49V61.4316H71C71.1857 61.4316 71.3678 61.3799 71.5257 61.2823C71.6837 61.1847 71.8114 61.045 71.8944 60.8789C71.9775 60.7127 72.0126 60.5268 71.996 60.3418C71.9793 60.1569 71.9114 59.9802 71.8 59.8316L59.8 43.8316C59.7069 43.7074 59.5861 43.6066 59.4472 43.5372C59.3084 43.4678 59.1552 43.4316 59 43.4316H45.609ZM46.459 45.4316H49.541L49.867 47.4316H46.133L46.459 45.4316ZM37.5 45.4316H40.273L39.425 47.4316H36L37.5 45.4316ZM34.5 49.4316H38.577L37.729 51.4316H33L34.5 49.4316ZM34.338 59.4316H27L28.5 57.4316H35.185L34.338 59.4316ZM30 55.4316L31.5 53.4316H36.881L36.033 55.4316H30ZM42.15 59.4316H36.51L37.358 57.4316H42.476L42.15 59.4316ZM42.802 55.4316H38.202L39.05 53.4316H43.124L42.802 55.4316ZM43.454 51.4316H39.9L40.748 49.4316H43.78L43.454 51.4316ZM41.6 47.4316L42.448 45.4316H44.436L44.11 47.4316H41.6ZM52.875 53.4316H56.949L57.797 55.4316H53.2L52.875 53.4316ZM53.853 59.4316L53.527 57.4316H58.645L59.493 59.4316H53.853ZM69 59.4316H61.662L60.815 57.4316H67.5L69 59.4316ZM66 55.4316H59.967L59.119 53.4316H64.5L66 55.4316ZM63 51.4316H58.271L57.423 49.4316H61.5L63 51.4316ZM58.5 45.4316L60 47.4316H56.575L55.727 45.4316H58.5ZM56.1 51.4316H52.546L52.219 49.4316H55.251L56.1 51.4316ZM53.556 45.4316L54.404 47.4316H51.894L51.568 45.4316H53.556ZM51.824 59.4316H44.176L44.502 57.4316H51.502L51.824 59.4316ZM51.172 55.4316H44.828L45.155 53.4316H50.845L51.172 55.4316ZM45.481 51.4316L45.807 49.4316H50.193L50.519 51.4316H45.481Z" fill="white"/>
<circle cx="59.5" cy="37.746" r="10.0487" fill="#F36C21" stroke="white"/>
<path d="M63.1642 34.0502L58.2316 38.9994L55.8359 36.5955C55.3878 36.1458 54.6612 36.1459 54.213 36.5955C53.7648 37.0452 53.7648 37.7742 54.213 38.224L57.4202 41.442C57.8682 41.8916 58.5948 41.8917 59.0431 41.442L64.7871 35.6786C65.2353 35.2289 65.2354 34.4999 64.7872 34.0502C64.339 33.6004 63.6124 33.6005 63.1642 34.0502Z" fill="white"/>
</svg>
