<svg width="70" height="71" viewBox="0 0 70 71" fill="none" xmlns="http://www.w3.org/2000/svg">
<mask id="mask0" style="mask-type:alpha" maskUnits="userSpaceOnUse" x="0" y="0" width="70" height="71">
<rect y="0.814453" width="70" height="70" fill="#C4C4C4"/>
</mask>
<g mask="url(#mask0)">
<path d="M45.1292 18.8145C45.1292 20.1989 45.5397 21.5523 46.3089 22.7034C47.078 23.8546 48.1713 24.7518 49.4504 25.2816C50.7294 25.8114 52.1369 25.95 53.4948 25.68C54.8526 25.4099 56.0999 24.7432 57.0789 23.7642C58.0579 22.7852 58.7246 21.538 58.9946 20.1801C59.2647 18.8222 59.1261 17.4148 58.5963 16.1357C58.0665 14.8566 57.1693 13.7633 56.0181 12.9942C54.867 12.225 53.5136 11.8145 52.1292 11.8145C50.2733 11.8166 48.494 12.5547 47.1817 13.867C45.8694 15.1793 45.1313 16.9586 45.1292 18.8145ZM52.1292 13.8145C53.1181 13.8145 54.0848 14.1077 54.907 14.6571C55.7292 15.2065 56.3701 15.9874 56.7485 16.901C57.127 17.8147 57.226 18.82 57.0331 19.7899C56.8402 20.7598 56.3639 21.6507 55.6647 22.35C54.9654 23.0492 54.0745 23.5255 53.1046 23.7184C52.1347 23.9113 51.1294 23.8123 50.2157 23.4339C49.3021 23.0554 48.5212 22.4145 47.9718 21.5923C47.4224 20.7701 47.1292 19.8034 47.1292 18.8145C47.1307 17.4889 47.658 16.218 48.5954 15.2807C49.5327 14.3433 50.8036 13.816 52.1292 13.8145Z" fill="#F36C21"/>
<path d="M53.1292 6.81445C53.1292 6.26217 52.6814 5.81445 52.1292 5.81445C51.5769 5.81445 51.1292 6.26217 51.1292 6.81445V8.81445C51.1292 9.36674 51.5769 9.81445 52.1292 9.81445C52.6814 9.81445 53.1292 9.36674 53.1292 8.81445V6.81445Z" fill="#F36C21"/>
<path d="M18.1292 6.81445C18.1292 6.26217 17.6814 5.81445 17.1292 5.81445C16.5769 5.81445 16.1292 6.26217 16.1292 6.81445V8.81445C16.1292 9.36674 16.5769 9.81445 17.1292 9.81445C17.6814 9.81445 18.1292 9.36674 18.1292 8.81445V6.81445Z" fill="#F36C21"/>
<path d="M24.5442 8.81444L23.1292 10.2294C22.947 10.418 22.8462 10.6706 22.8485 10.9328C22.8508 11.195 22.9559 11.4459 23.1413 11.6313C23.3268 11.8167 23.5776 11.9218 23.8398 11.9241C24.102 11.9264 24.3546 11.8256 24.5432 11.6434L25.9582 10.2284C26.0537 10.1362 26.1299 10.0259 26.1823 9.90385C26.2347 9.78184 26.2623 9.65062 26.2634 9.51784C26.2646 9.38507 26.2393 9.25339 26.189 9.13049C26.1387 9.00759 26.0644 8.89594 25.9706 8.80205C25.8767 8.70816 25.765 8.6339 25.6421 8.58362C25.5192 8.53334 25.3875 8.50804 25.2548 8.50919C25.122 8.51035 24.9908 8.53793 24.8688 8.59034C24.7468 8.64275 24.6364 8.71893 24.5442 8.81444Z" fill="#F36C21"/>
<path d="M9.54316 8.81446C9.35456 8.63231 9.10196 8.53151 8.83976 8.53379C8.57756 8.53607 8.32675 8.64124 8.14134 8.82665C7.95593 9.01205 7.85077 9.26287 7.84849 9.52506C7.84621 9.78726 7.947 10.0399 8.12916 10.2285L9.54416 11.6435C9.73276 11.8256 9.98537 11.9264 10.2476 11.9241C10.5098 11.9219 10.7606 11.8167 10.946 11.6313C11.1314 11.4459 11.2366 11.1951 11.2388 10.9329C11.2411 10.6707 11.1403 10.4181 10.9582 10.2295L9.54316 8.81446Z" fill="#F36C21"/>
<path d="M28.1292 16.8145H26.1292C25.5769 16.8145 25.1292 17.2622 25.1292 17.8145C25.1292 18.3667 25.5769 18.8145 26.1292 18.8145H28.1292C28.6814 18.8145 29.1292 18.3667 29.1292 17.8145C29.1292 17.2622 28.6814 16.8145 28.1292 16.8145Z" fill="#F36C21"/>
<path d="M8.12915 16.8145H6.12915C5.57687 16.8145 5.12915 17.2622 5.12915 17.8145C5.12915 18.3667 5.57687 18.8145 6.12915 18.8145H8.12915C8.68144 18.8145 9.12915 18.3667 9.12915 17.8145C9.12915 17.2622 8.68144 16.8145 8.12915 16.8145Z" fill="#F36C21"/>
<path d="M64.1292 17.8145H62.1292C61.5769 17.8145 61.1292 18.2622 61.1292 18.8145C61.1292 19.3667 61.5769 19.8145 62.1292 19.8145H64.1292C64.6814 19.8145 65.1292 19.3667 65.1292 18.8145C65.1292 18.2622 64.6814 17.8145 64.1292 17.8145Z" fill="#F36C21"/>
<path d="M42.1292 17.8145H40.1292C39.5769 17.8145 39.1292 18.2622 39.1292 18.8145C39.1292 19.3667 39.5769 19.8145 40.1292 19.8145H42.1292C42.6814 19.8145 43.1292 19.3667 43.1292 18.8145C43.1292 18.2622 42.6814 17.8145 42.1292 17.8145Z" fill="#F36C21"/>
<path d="M61.3211 9.62244C61.1336 9.43497 60.8793 9.32965 60.6141 9.32965C60.349 9.32965 60.0947 9.43497 59.9071 9.62244L58.4931 11.0364C58.311 11.225 58.2102 11.4776 58.2125 11.7398C58.2147 12.002 58.3199 12.2528 58.5053 12.4383C58.6907 12.6237 58.9415 12.7288 59.2037 12.7311C59.4659 12.7334 59.7185 12.6326 59.9071 12.4504L61.3211 11.0364C61.5086 10.8489 61.6139 10.5946 61.6139 10.3294C61.6139 10.0643 61.5086 9.80997 61.3211 9.62244Z" fill="#F36C21"/>
<path d="M44.3511 25.1785L42.9371 26.5925C42.755 26.7811 42.6542 27.0337 42.6565 27.2959C42.6587 27.5581 42.7639 27.8089 42.9493 27.9943C43.1347 28.1797 43.3855 28.2849 43.6477 28.2871C43.9099 28.2894 44.1625 28.1886 44.3511 28.0065L45.7651 26.5925C45.8607 26.5002 45.9368 26.3899 45.9892 26.2679C46.0417 26.1459 46.0692 26.0146 46.0704 25.8819C46.0715 25.7491 46.0462 25.6174 45.996 25.4945C45.9457 25.3716 45.8714 25.26 45.7775 25.1661C45.6836 25.0722 45.572 24.9979 45.4491 24.9476C45.3262 24.8974 45.1945 24.8721 45.0617 24.8732C44.929 24.8744 44.7977 24.9019 44.6757 24.9544C44.5537 25.0068 44.4434 25.0829 44.3511 25.1785Z" fill="#F36C21"/>
<path d="M58.4932 25.1785C58.3057 25.366 58.2004 25.6203 58.2004 25.8855C58.2004 26.1506 58.3057 26.4049 58.4932 26.5925L59.9072 28.0065C60.0958 28.1886 60.3484 28.2894 60.6106 28.2871C60.8728 28.2849 61.1236 28.1797 61.309 27.9943C61.4944 27.8089 61.5996 27.5581 61.6018 27.2959C61.6041 27.0337 61.5033 26.7811 61.3212 26.5925L59.9072 25.1785C59.7196 24.991 59.4653 24.8857 59.2002 24.8857C58.935 24.8857 58.6807 24.991 58.4932 25.1785Z" fill="#F36C21"/>
<path d="M44.3511 9.62245C44.1625 9.44029 43.9099 9.3395 43.6477 9.34177C43.3855 9.34405 43.1347 9.44922 42.9493 9.63463C42.7639 9.82004 42.6587 10.0708 42.6565 10.333C42.6542 10.5952 42.755 10.8478 42.9371 11.0364L44.3511 12.4504C44.4434 12.546 44.5537 12.6221 44.6757 12.6745C44.7977 12.727 44.929 12.7545 45.0617 12.7557C45.1945 12.7569 45.3262 12.7315 45.4491 12.6813C45.572 12.631 45.6836 12.5567 45.7775 12.4628C45.8714 12.3689 45.9457 12.2573 45.996 12.1344C46.0462 12.0115 46.0715 11.8798 46.0704 11.747C46.0692 11.6143 46.0417 11.483 45.9892 11.361C45.9368 11.239 45.8607 11.1287 45.7651 11.0364L44.3511 9.62245Z" fill="#F36C21"/>
<path d="M32.7381 39.8145H24.1292C23.9739 39.8145 23.8208 39.8506 23.6819 39.92C23.5431 39.9895 23.4223 40.0903 23.3292 40.2145L11.3292 56.2145C11.2177 56.363 11.1499 56.5397 11.1332 56.7246C11.1165 56.9096 11.1517 57.0956 11.2347 57.2617C11.3178 57.4278 11.4454 57.5675 11.6034 57.6651C11.7614 57.7627 11.9434 57.8145 12.1292 57.8145H34.1292V63.8145H32.1292C31.8639 63.8145 31.6096 63.9198 31.422 64.1073C31.2345 64.2949 31.1292 64.5492 31.1292 64.8145C31.1292 65.0797 31.2345 65.334 31.422 65.5216C31.6096 65.7091 31.8639 65.8145 32.1292 65.8145H38.1292C38.3944 65.8145 38.6487 65.7091 38.8363 65.5216C39.0238 65.334 39.1292 65.0797 39.1292 64.8145C39.1292 64.5492 39.0238 64.2949 38.8363 64.1073C38.6487 63.9198 38.3944 63.8145 38.1292 63.8145H36.1292V57.8145H58.1292C58.3149 57.8145 58.4969 57.7627 58.6549 57.6651C58.8129 57.5675 58.9405 57.4278 59.0236 57.2617C59.1066 57.0956 59.1418 56.9096 59.1251 56.7246C59.1084 56.5397 59.0406 56.363 58.9291 56.2145L46.9291 40.2145C46.836 40.0903 46.7152 39.9895 46.5764 39.92C46.4375 39.8506 46.2844 39.8145 46.1292 39.8145H32.7381ZM33.5882 41.8145H36.6702L36.9962 43.8145H33.2621L33.5882 41.8145ZM24.6292 41.8145H27.4022L26.5541 43.8145H23.1292L24.6292 41.8145ZM21.6292 45.8145H25.7062L24.8582 47.8145H20.1292L21.6292 45.8145ZM21.4671 55.8145H14.1292L15.6292 53.8145H22.3141L21.4671 55.8145ZM17.1292 51.8145L18.6292 49.8145H24.0102L23.1622 51.8145H17.1292ZM29.2792 55.8145H23.6392L24.4872 53.8145H29.6052L29.2792 55.8145ZM29.9312 51.8145H25.3312L26.1791 49.8145H30.2532L29.9312 51.8145ZM30.5832 47.8145H27.0292L27.8771 45.8145H30.9092L30.5832 47.8145ZM28.7292 43.8145L29.5772 41.8145H31.5652L31.2392 43.8145H28.7292ZM40.0042 49.8145H44.0782L44.9262 51.8145H40.3292L40.0042 49.8145ZM40.9822 55.8145L40.6562 53.8145H45.7742L46.6222 55.8145H40.9822ZM56.1292 55.8145H48.7911L47.9441 53.8145H54.6292L56.1292 55.8145ZM53.1292 51.8145H47.0961L46.2481 49.8145H51.6292L53.1292 51.8145ZM50.1292 47.8145H45.4002L44.5522 45.8145H48.6292L50.1292 47.8145ZM45.6292 41.8145L47.1292 43.8145H43.7042L42.8562 41.8145H45.6292ZM43.2291 47.8145H39.6752L39.3482 45.8145H42.3801L43.2291 47.8145ZM40.6852 41.8145L41.5331 43.8145H39.0232L38.6972 41.8145H40.6852ZM38.9532 55.8145H31.3052L31.6312 53.8145H38.6311L38.9532 55.8145ZM38.3012 51.8145H31.9571L32.2842 49.8145H37.9742L38.3012 51.8145ZM32.6102 47.8145L32.9361 45.8145H37.3222L37.6482 47.8145H32.6102Z" fill="#F36C21"/>
<path d="M11.1292 17.8145C11.128 18.6554 11.3058 19.487 11.6506 20.2541C11.9954 21.0211 12.4994 21.7061 13.1292 22.2635V22.8145C13.129 22.9696 13.165 23.1226 13.2342 23.2615L14.1292 25.0505V27.8145C14.1292 28.3449 14.3399 28.8536 14.7149 29.2287C15.09 29.6037 15.5987 29.8145 16.1292 29.8145H18.1292C18.6596 29.8145 19.1683 29.6037 19.5434 29.2287C19.9184 28.8536 20.1292 28.3449 20.1292 27.8145V25.0505L21.0242 23.2615C21.0934 23.1226 21.1293 22.9696 21.1292 22.8145V22.2635C21.7589 21.7061 22.2629 21.0211 22.6077 20.2541C22.9525 19.487 23.1303 18.6554 23.1292 17.8145C23.1292 16.2232 22.497 14.697 21.3718 13.5718C20.2466 12.4466 18.7205 11.8145 17.1292 11.8145C15.5379 11.8145 14.0117 12.4466 12.8865 13.5718C11.7613 14.697 11.1292 16.2232 11.1292 17.8145ZM16.1292 27.8145V25.8145H18.1292V27.8145H16.1292ZM17.1292 13.8145C18.19 13.8145 19.2074 14.2359 19.9576 14.986C20.7077 15.7362 21.1292 16.7536 21.1292 17.8145C21.1289 18.4326 20.984 19.042 20.7062 19.5942C20.4284 20.1463 20.0253 20.6258 19.5292 20.9945C19.405 21.0876 19.3042 21.2084 19.2347 21.3472C19.1653 21.4861 19.1292 21.6392 19.1292 21.7945V22.5805L18.5112 23.8145H15.7472L15.1292 22.5785V21.7925C15.1292 21.6372 15.093 21.4841 15.0236 21.3452C14.9542 21.2064 14.8534 21.0856 14.7292 20.9925C14.2333 20.624 13.8304 20.1448 13.5526 19.5931C13.2748 19.0413 13.1298 18.4322 13.1292 17.8145C13.1292 16.7536 13.5506 15.7362 14.3007 14.986C15.0509 14.2359 16.0683 13.8145 17.1292 13.8145Z" fill="#F36C21"/>
<path d="M52.1292 29.8145C52.6814 29.8145 53.1292 29.3667 53.1292 28.8145C53.1292 28.2622 52.6814 27.8145 52.1292 27.8145C51.5769 27.8145 51.1292 28.2622 51.1292 28.8145C51.1292 29.3667 51.5769 29.8145 52.1292 29.8145Z" fill="#F36C21"/>
<path d="M52.1292 33.8145C52.6814 33.8145 53.1292 33.3667 53.1292 32.8145C53.1292 32.2622 52.6814 31.8145 52.1292 31.8145C51.5769 31.8145 51.1292 32.2622 51.1292 32.8145C51.1292 33.3667 51.5769 33.8145 52.1292 33.8145Z" fill="#F36C21"/>
<path d="M52.1292 37.8145C52.6814 37.8145 53.1292 37.3667 53.1292 36.8145C53.1292 36.2622 52.6814 35.8145 52.1292 35.8145C51.5769 35.8145 51.1292 36.2622 51.1292 36.8145C51.1292 37.3667 51.5769 37.8145 52.1292 37.8145Z" fill="#F36C21"/>
<path d="M52.1292 41.8145C52.6814 41.8145 53.1292 41.3667 53.1292 40.8145C53.1292 40.2622 52.6814 39.8145 52.1292 39.8145C51.5769 39.8145 51.1292 40.2622 51.1292 40.8145C51.1292 41.3667 51.5769 41.8145 52.1292 41.8145Z" fill="#F36C21"/>
<path d="M17.1292 33.8145C17.6814 33.8145 18.1292 33.3667 18.1292 32.8145C18.1292 32.2622 17.6814 31.8145 17.1292 31.8145C16.5769 31.8145 16.1292 32.2622 16.1292 32.8145C16.1292 33.3667 16.5769 33.8145 17.1292 33.8145Z" fill="#F36C21"/>
<path d="M17.1292 37.8145C17.6814 37.8145 18.1292 37.3667 18.1292 36.8145C18.1292 36.2622 17.6814 35.8145 17.1292 35.8145C16.5769 35.8145 16.1292 36.2622 16.1292 36.8145C16.1292 37.3667 16.5769 37.8145 17.1292 37.8145Z" fill="#F36C21"/>
<path d="M17.1292 41.8145C17.6814 41.8145 18.1292 41.3667 18.1292 40.8145C18.1292 40.2622 17.6814 39.8145 17.1292 39.8145C16.5769 39.8145 16.1292 40.2622 16.1292 40.8145C16.1292 41.3667 16.5769 41.8145 17.1292 41.8145Z" fill="#F36C21"/>
</g>
</svg>
