<svg width="70" height="71" viewBox="0 0 70 71" fill="none" xmlns="http://www.w3.org/2000/svg">
<mask id="mask0" style="mask-type:alpha" maskUnits="userSpaceOnUse" x="0" y="0" width="70" height="71">
<rect y="0.412354" width="70" height="70" fill="#C4C4C4"/>
</mask>
<g mask="url(#mask0)">
</g>
<path d="M20 34.4124C13.383 34.4124 8 39.7954 8 46.4124C8 53.0294 13.383 58.4124 20 58.4124C26.617 58.4124 32 53.0294 32 46.4124C32 39.7954 26.617 34.4124 20 34.4124ZM29.949 45.4124H21V36.4634C25.717 36.9334 29.479 40.6954 29.949 45.4124ZM10 46.4124C10 41.2364 13.954 36.9664 19 36.4634V56.3624C13.954 55.8584 10 51.5884 10 46.4124ZM21 56.3614V47.4124H29.949C29.479 52.1294 25.717 55.8914 21 56.3614Z" fill="#F36C21"/>
<path d="M55.287 38.4124H63C64.654 38.4124 66 37.0664 66 35.4124V15.4124C66 13.7584 64.654 12.4124 63 12.4124H52V4.41235H12.586L4 12.9984V62.4124H28.697L34.697 66.4124H63C64.654 66.4124 66 65.0664 66 63.4124V59.4124C66 57.7584 64.654 56.4124 63 56.4124H52V40.4674L55.287 38.4124ZM64 15.4124V35.4124C64 35.9644 63.552 36.4124 63 36.4124H54.713L48 40.6074V36.4124H37C36.448 36.4124 36 35.9644 36 35.4124V15.4124C36 14.8604 36.448 14.4124 37 14.4124H63C63.552 14.4124 64 14.8604 64 15.4124ZM12 7.82635V12.4124H7.414L12 7.82635ZM36 62.4124H52V64.4124H36V62.4124ZM54 58.4124H56V64.4124H54V58.4124ZM52 60.4124H36V58.4124H52V60.4124ZM34 63.5444L30.803 61.4124L34 59.2804V63.5444ZM64 59.4124V63.4124C64 63.9644 63.552 64.4124 63 64.4124H58V58.4124H63C63.552 58.4124 64 58.8604 64 59.4124ZM50 56.4124H34.697L28.697 60.4124H6V14.4124H14V6.41235H50V12.4124H37C35.346 12.4124 34 13.7584 34 15.4124V35.4124C34 37.0664 35.346 38.4124 37 38.4124H46V44.2174L50 41.7174V56.4124Z" fill="#F36C21"/>
<path d="M29 16.4124H27V28.4124H25V14.4124H23V28.4124H21V22.4124H19V28.4124H17V18.4124H15V28.4124H13V20.4124H11V28.4124H8V30.4124H32V28.4124H29V16.4124Z" fill="#F36C21"/>
</svg>
