<svg width="96" height="97" viewBox="0 0 96 97" fill="none" xmlns="http://www.w3.org/2000/svg">
<circle cx="48" cy="48.3145" r="48" fill="#F36C21"/>
<path d="M40 28.8145H33C31.9391 28.8145 30.9217 29.2359 30.1716 29.986C29.4214 30.7362 29 31.7536 29 32.8145V71.8145C29 72.8753 29.4214 73.8927 30.1716 74.6429C30.9217 75.393 31.9391 75.8145 33 75.8145H63C64.0609 75.8145 65.0783 75.393 65.8284 74.6429C66.5786 73.8927 67 72.8753 67 71.8145V32.8145C67 31.7536 66.5786 30.7362 65.8284 29.986C65.0783 29.2359 64.0609 28.8145 63 28.8145H56" stroke="white" stroke-width="2" stroke-linecap="round" stroke-linejoin="round"/>
<path d="M48 26.8145C49.6569 26.8145 51 25.4713 51 23.8145C51 22.1576 49.6569 20.8145 48 20.8145C46.3431 20.8145 45 22.1576 45 23.8145C45 25.4713 46.3431 26.8145 48 26.8145Z" stroke="white" stroke-width="2" stroke-linecap="round" stroke-linejoin="round"/>
<path d="M44 26.8145H52C52.6566 26.8145 53.3068 26.9438 53.9134 27.1951C54.52 27.4463 55.0712 27.8146 55.5355 28.2789C55.9998 28.7432 56.3681 29.2944 56.6194 29.901C56.8707 30.5077 57 31.1578 57 31.8145V31.8145H39C39 30.4884 39.5268 29.2166 40.4645 28.2789C41.4021 27.3412 42.6739 26.8145 44 26.8145V26.8145Z" stroke="white" stroke-width="2" stroke-linecap="round" stroke-linejoin="round"/>
<path d="M39 46.8145C40.1046 46.8145 41 45.919 41 44.8145C41 43.7099 40.1046 42.8145 39 42.8145C37.8954 42.8145 37 43.7099 37 44.8145C37 45.919 37.8954 46.8145 39 46.8145Z" fill="white"/>
<path d="M46 44.8145H58" stroke="white" stroke-width="2" stroke-linecap="round" stroke-linejoin="round"/>
<path d="M39 53.8145C40.1046 53.8145 41 52.919 41 51.8145C41 50.7099 40.1046 49.8145 39 49.8145C37.8954 49.8145 37 50.7099 37 51.8145C37 52.919 37.8954 53.8145 39 53.8145Z" fill="white"/>
<path d="M46 51.8145H58" stroke="white" stroke-width="2" stroke-linecap="round" stroke-linejoin="round"/>
<path d="M39 60.8145C40.1046 60.8145 41 59.919 41 58.8145C41 57.7099 40.1046 56.8145 39 56.8145C37.8954 56.8145 37 57.7099 37 58.8145C37 59.919 37.8954 60.8145 39 60.8145Z" fill="white"/>
<path d="M46 58.8145H58" stroke="white" stroke-width="2" stroke-linecap="round" stroke-linejoin="round"/>
</svg>
