<svg width="35" height="35" viewBox="0 0 35 35" fill="none" xmlns="http://www.w3.org/2000/svg">
<g clip-path="url(#clip0)">
<circle cx="17.4909" cy="17.5494" r="17.15" fill="white"/>
<path d="M29.624 5.41781C22.9334 -1.27344 12.0479 -1.27344 5.35857 5.41619C-1.33203 12.1058 -1.33138 22.9916 5.35922 29.6826C12.0479 36.3719 22.9334 36.3719 29.6233 29.6813C36.3133 22.9916 36.3129 12.1065 29.624 5.41781ZM27.7518 27.8104C22.0941 33.468 12.8881 33.4687 7.23011 27.811C1.57117 22.1524 1.57182 12.9454 7.23011 7.28774C12.8878 1.63041 22.0935 1.62977 27.7524 7.28838C33.4101 12.946 33.4094 22.153 27.7518 27.8104ZM25.2486 20.9661C25.4614 20.4742 25.235 19.9034 24.7435 19.691C24.2516 19.4775 23.6808 19.7045 23.468 20.1961C22.5323 22.3594 20.3212 23.7575 17.8339 23.7575C15.2894 23.7575 13.0647 22.3607 12.1672 20.1987C12.0123 19.8255 11.6511 19.6001 11.2711 19.6001C11.1469 19.6001 11.0211 19.624 10.8991 19.6745C10.4043 19.8801 10.1699 20.4481 10.3752 20.9425C11.5751 23.8312 14.5032 25.6976 17.8339 25.6976C21.0951 25.6976 24.0058 23.8406 25.2486 20.9661ZM11.0909 12.9056C11.0909 11.7983 11.989 10.9002 13.0964 10.9002C14.2034 10.9002 15.1015 11.7979 15.1015 12.9056C15.1015 14.0136 14.2034 14.9114 13.0964 14.9114C11.989 14.9114 11.0909 14.0136 11.0909 12.9056ZM20.1841 12.9056C20.1841 11.7983 21.0828 10.9002 22.1902 10.9002C23.2972 10.9002 24.1953 11.7979 24.1953 12.9056C24.1953 14.0136 23.2975 14.9114 22.1902 14.9114C21.0828 14.9114 20.1841 14.0136 20.1841 12.9056Z" fill="#329138"/>
</g>
<defs>
<clipPath id="clip0">
<rect width="34.3" height="34.3" fill="white" transform="translate(0.340942 0.399414)"/>
</clipPath>
</defs>
</svg>
