<svg width="168" height="28" viewBox="0 0 168 28" fill="none" xmlns="http://www.w3.org/2000/svg">
<path d="M13.9125 3.59441C14.2013 2.67029 15.5037 2.65493 15.8142 3.57198L18.083 10.2729C18.2214 10.6816 18.6062 10.9554 19.0377 10.9522L26.1095 10.8994C27.0773 10.8922 27.4899 12.1269 26.7122 12.7029L21.0039 16.9313C20.657 17.1883 20.5142 17.6389 20.6497 18.0488L22.8643 24.7453C23.1682 25.664 22.1199 26.4356 21.3329 25.8725L15.5832 21.7579C15.2302 21.5054 14.7547 21.5093 14.406 21.7676L8.73028 25.9718C7.94978 26.55 6.88642 25.7882 7.18271 24.8632L9.33718 18.1371C9.46967 17.7235 9.32 17.2716 8.96678 17.0188L3.2249 12.91C2.43721 12.3463 2.83081 11.104 3.79938 11.0968L10.8568 11.0441C11.2914 11.0408 11.6741 10.7572 11.8038 10.3424L13.9125 3.59441Z" fill="#FDE16D"/>
<path d="M48.5309 3.59442C48.8197 2.6703 50.1221 2.65494 50.4326 3.572L52.7014 10.2729C52.8398 10.6816 53.2246 10.9554 53.656 10.9522L60.7279 10.8994C61.6957 10.8922 62.1083 12.1269 61.3306 12.7029L55.6267 16.9281C55.2777 17.1866 55.1354 17.6409 55.2747 18.0523L57.5385 24.7385C57.8493 25.6564 56.8035 26.4355 56.0129 25.8749L50.2035 21.7554C49.8494 21.5044 49.3738 21.5104 49.0262 21.7703L43.4103 25.9691C42.6334 26.5499 41.5677 25.7958 41.857 24.87L43.9621 18.1335C44.0909 17.7214 43.9407 17.2732 43.5896 17.022L37.8433 12.91C37.0556 12.3463 37.4492 11.104 38.4178 11.0968L45.4752 11.0441C45.9098 11.0408 46.2926 10.7572 46.4222 10.3424L48.5309 3.59442Z" fill="#FDE16D"/>
<path d="M83.2065 3.58772C83.5018 2.66568 84.8042 2.65956 85.1082 3.57879L87.3198 10.2662C87.4561 10.6783 87.8427 10.9554 88.2767 10.9521L95.3432 10.8994C96.311 10.8922 96.7236 12.1269 95.9459 12.7029L90.2419 16.9281C89.8929 17.1866 89.7507 17.6409 89.89 18.0523L92.1465 24.7169C92.458 25.6369 91.4073 26.4161 90.6174 25.8508L84.8979 21.7579C84.545 21.5054 84.0694 21.5093 83.7207 21.7676L78.015 25.9941C77.2374 26.5701 76.1766 25.8159 76.4653 24.8923L78.5774 18.1335C78.7061 17.7214 78.5559 17.2732 78.2048 17.022L72.4585 12.91C71.6709 12.3463 72.0645 11.104 73.033 11.0968L80.0958 11.0441C80.5278 11.0408 80.9089 10.7605 81.0407 10.3491L83.2065 3.58772Z" fill="#FDE16D"/>
<path d="M117.822 3.58773C118.117 2.66569 119.42 2.65957 119.724 3.5788L121.935 10.2662C122.071 10.6783 122.458 10.9554 122.892 10.9521L129.982 10.8992C130.947 10.892 131.361 12.1219 130.588 12.7001L124.929 16.9307C124.585 17.1883 124.444 17.6373 124.579 18.0456L126.794 24.7453C127.098 25.664 126.05 26.4356 125.263 25.8725L119.513 21.7579C119.16 21.5054 118.685 21.5093 118.336 21.7676L112.63 25.9941C111.853 26.5701 110.792 25.8159 111.081 24.8922L113.193 18.1335C113.321 17.7214 113.171 17.2732 112.82 17.022L107.074 12.91C106.286 12.3463 106.68 11.104 107.648 11.0968L114.711 11.0441C115.143 11.0408 115.524 10.7605 115.656 10.3491L117.822 3.58773Z" fill="#FDE16D"/>
<path d="M152.458 3.59442C152.747 2.6703 154.049 2.65494 154.359 3.572L156.628 10.2729C156.767 10.6816 157.151 10.9554 157.583 10.9522L164.655 10.8994C165.623 10.8922 166.035 12.1269 165.257 12.7029L159.549 16.9313C159.202 17.1883 159.059 17.6389 159.195 18.0488L161.41 24.7453C161.713 25.664 160.665 26.4356 159.878 25.8725L154.128 21.7579C153.775 21.5054 153.3 21.5093 152.951 21.7676L147.276 25.9718C146.495 26.55 145.432 25.7882 145.728 24.8632L147.881 18.1403C148.014 17.7251 147.863 17.2716 147.508 17.0195L141.716 12.9125C140.924 12.3509 141.316 11.1039 142.287 11.0968L149.402 11.0441C149.837 11.0408 150.219 10.7572 150.349 10.3424L152.458 3.59442Z" fill="#FDE16D"/>
</svg>
