<svg width="96" height="97" viewBox="0 0 96 97" fill="none" xmlns="http://www.w3.org/2000/svg">
<circle cx="48" cy="48.3145" r="48" fill="#F36C21"/>
<g clip-path="url(#clip0)">
<path d="M31.214 59.4605L31.2138 59.4604C29.3688 58.6389 28.2669 56.8193 28.2647 54.9094V24.3662H56.3556V54.9091C56.3535 56.8191 55.2516 58.6389 53.4065 59.4604L53.4063 59.4605L42.3102 64.4058L31.214 59.4605Z" fill="#F36C21" stroke="white"/>
<path d="M42.3102 26.1488C41.4629 27.1145 40.9465 28.3786 40.9465 29.766C40.9968 32.8125 41.3688 35.8527 41.4011 38.8982C41.4684 41.7366 40.6207 44.4025 39.59 47.0031C39.2466 47.7217 38.8751 48.4251 38.5034 49.1292L37.4096 48.908C36.4255 48.7104 35.7853 47.7491 35.9821 46.7605C36.1542 45.8955 36.9122 45.2948 37.7576 45.2908L38.1554 45.3336L37.2676 37.8851C36.9774 34.5683 35.2739 31.6589 32.7647 29.766C32.3335 29.4407 31.8767 29.1433 31.4011 28.8813V55.3362H37.4806C37.9352 57.8151 39.2933 59.9747 41.2022 61.4577C41.6563 61.772 42.0366 62.1867 42.3102 62.6705C42.5837 62.1867 42.9641 61.772 43.4181 61.4577C45.3271 59.9747 46.6852 57.8151 47.1397 55.3362H53.2193V28.8813C52.7437 29.1433 52.2868 29.4407 51.8556 29.766C49.3464 31.6589 47.643 34.5683 47.3528 37.8851L46.465 45.3336L46.8627 45.2908C47.7082 45.2948 48.4661 45.8955 48.6383 46.7605C48.8351 47.7491 48.1949 48.7104 47.2108 48.908L46.117 49.1292C45.7453 48.4251 45.3738 47.7217 45.0304 47.0031C43.9997 44.4025 43.152 41.7366 43.2193 38.8982C43.2516 35.8527 43.6236 32.8125 43.6738 29.766C43.6738 28.3786 43.1575 27.1145 42.3102 26.1488ZM33.2193 32.6912C34.3959 34.0784 35.1855 35.807 35.421 37.7068L36.1525 43.8496C35.221 44.3154 34.5149 45.1701 34.2491 46.204H33.2193V32.6912ZM51.4011 32.6912V46.204H50.3713C50.1055 45.1701 49.3993 44.3154 48.4679 43.8496L49.1994 37.7068C49.4348 35.807 50.2245 34.0784 51.4011 32.6912ZM42.3102 45.0411C42.7986 46.6458 43.4705 48.1695 44.3059 49.5858C43.5113 49.8283 42.8198 50.2999 42.3102 50.9342C41.8006 50.2999 41.109 49.8283 40.3144 49.5858C41.1498 48.1695 41.8218 46.6458 42.3102 45.0411ZM33.2193 48.0305H34.2491C34.5738 49.2909 35.5534 50.2869 36.7988 50.6346L37.6724 50.8343C37.4385 51.6862 37.3102 52.5836 37.3102 53.5098H33.2193V48.0305ZM50.3713 48.0305H51.4011V53.5098H47.3102C47.3102 52.5836 47.1819 51.6862 46.948 50.8343L47.8215 50.6346C49.0669 50.2869 50.0466 49.2909 50.3713 48.0305ZM39.448 51.2553C40.5509 51.4119 41.4011 52.3588 41.4011 53.5098H39.1284C39.1284 52.7269 39.2438 51.9724 39.448 51.2553ZM45.1724 51.2553C45.3765 51.9724 45.492 52.7269 45.492 53.5098H43.2193C43.2193 52.3588 44.0694 51.4119 45.1724 51.2553ZM39.3343 55.3362H41.4011V59.1817C40.3981 58.1284 39.6695 56.8058 39.3343 55.3362ZM43.2193 55.3362H45.286C44.9509 56.8058 44.2223 58.1284 43.2193 59.1817V55.3362Z" fill="white"/>
</g>
<circle cx="58.1411" cy="62.6703" r="10.0487" fill="#F36C21" stroke="white"/>
<path d="M61.8053 58.9745L56.8727 63.9237L54.477 61.5199C54.0289 61.0702 53.3023 61.0702 52.8541 61.5199C52.4059 61.9695 52.4059 62.6986 52.8541 63.1483L56.0613 66.3663C56.5094 66.8159 57.236 66.8161 57.6842 66.3663L63.4282 60.6029C63.8764 60.1532 63.8765 59.4242 63.4283 58.9745C62.9801 58.5248 62.2535 58.5248 61.8053 58.9745Z" fill="white"/>
<defs>
<clipPath id="clip0">
<rect width="30" height="42" fill="white" transform="translate(27.3102 23.4097)"/>
</clipPath>
</defs>
</svg>
