<svg width="70" height="71" viewBox="0 0 70 71" fill="none" xmlns="http://www.w3.org/2000/svg">
<mask id="mask0" style="mask-type:alpha" maskUnits="userSpaceOnUse" x="0" y="0" width="70" height="71">
<rect y="0.412354" width="70" height="70" fill="#C4C4C4"/>
</mask>
<g mask="url(#mask0)">
<path d="M41.239 34.1574H37.8437L37.8501 25.0335C37.8503 24.7704 37.7677 24.5138 37.6141 24.3002C37.4606 24.0865 37.2437 23.9265 36.9942 23.8428C36.7447 23.7592 36.4753 23.756 36.2239 23.8339C35.9725 23.9117 35.752 24.0666 35.5935 24.2767L27.7594 34.6563C27.6188 34.8426 27.5329 35.0644 27.5114 35.2968C27.4899 35.5292 27.5337 35.763 27.6377 35.9719C27.7418 36.1808 27.9021 36.3565 28.1005 36.4793C28.2989 36.6022 28.5277 36.6673 28.7611 36.6672H32.1564L32.15 45.7911C32.1498 46.0543 32.2323 46.3108 32.3859 46.5245C32.5395 46.7382 32.7564 46.8981 33.0059 46.9818C33.2553 47.0655 33.5248 47.0686 33.7762 46.9908C34.0275 46.9129 34.248 46.758 34.4066 46.548L42.2407 36.1683C42.3813 35.9821 42.4671 35.7603 42.4886 35.5279C42.5101 35.2955 42.4664 35.0617 42.3623 34.8528C42.2583 34.6439 42.098 34.4682 41.8996 34.3453C41.7011 34.2225 41.4724 34.1574 41.239 34.1574ZM34.6625 42.0428L34.6671 35.4132V35.4123C34.6671 35.0795 34.5349 34.7603 34.2996 34.525C34.0642 34.2896 33.745 34.1574 33.4122 34.1574H31.2805L35.3376 28.7819L35.3329 35.4115C35.3328 35.5763 35.3652 35.7395 35.4282 35.8918C35.4911 36.0441 35.5835 36.1825 35.6999 36.2991C35.8164 36.4157 35.9547 36.5082 36.1069 36.5714C36.2591 36.6346 36.4223 36.6671 36.5871 36.6672H38.7196L34.6625 42.0428Z" fill="#F36C21"/>
<path d="M35 18.3554C25.5948 18.3554 17.9431 26.0071 17.9431 35.4123C17.9431 44.8175 25.5948 52.4692 35 52.4692C44.4053 52.4692 52.0569 44.8175 52.0569 35.4123C52.0569 26.0071 44.4053 18.3554 35 18.3554ZM35 49.9594C32.1229 49.9594 29.3104 49.1063 26.9181 47.5078C24.5258 45.9093 22.6613 43.6374 21.5603 40.9793C20.4592 38.3211 20.1712 35.3962 20.7325 32.5743C21.2938 29.7525 22.6792 27.1604 24.7137 25.126C26.7481 23.0915 29.3402 21.7061 32.162 21.1447C34.9839 20.5834 37.9088 20.8715 40.567 21.9726C43.2251 23.0736 45.4971 24.9381 47.0955 27.3304C48.694 29.7227 49.5471 32.5352 49.5471 35.4123C49.5428 39.2691 48.0087 42.9667 45.2816 45.6939C42.5544 48.421 38.8568 49.9551 35 49.9594Z" fill="#F36C21"/>
<path d="M35 16.6149C35.3329 16.6149 35.652 16.4827 35.8874 16.2474C36.1227 16.012 36.2549 15.6928 36.2549 15.36V8.05978C36.2549 7.72696 36.1227 7.40777 35.8874 7.17243C35.652 6.93708 35.3329 6.80487 35 6.80487C34.6672 6.80487 34.348 6.93708 34.1127 7.17243C33.8773 7.40777 33.7451 7.72696 33.7451 8.05978V15.36C33.7451 15.6928 33.8773 16.012 34.1127 16.2474C34.348 16.4827 34.6672 16.6149 35 16.6149Z" fill="#F36C21"/>
<path d="M35 54.2098C34.6672 54.2098 34.348 54.342 34.1127 54.5773C33.8773 54.8127 33.7451 55.1319 33.7451 55.4647V62.7649C33.7451 63.0978 33.8773 63.4169 34.1127 63.6523C34.348 63.8876 34.6672 64.0198 35 64.0198C35.3329 64.0198 35.652 63.8876 35.8874 63.6523C36.1227 63.4169 36.2549 63.0978 36.2549 62.7649V55.4647C36.2549 55.1319 36.1227 54.8127 35.8874 54.5773C35.652 54.342 35.3329 54.2098 35 54.2098Z" fill="#F36C21"/>
<path d="M14.9477 34.1575H7.64743C7.3146 34.1575 6.99541 34.2897 6.76007 34.525C6.52473 34.7604 6.39252 35.0796 6.39252 35.4124C6.39252 35.7452 6.52473 36.0644 6.76007 36.2997C6.99541 36.5351 7.3146 36.6673 7.64743 36.6673H14.9477C15.2805 36.6673 15.5997 36.5351 15.835 36.2997C16.0704 36.0644 16.2026 35.7452 16.2026 35.4124C16.2026 35.0796 16.0704 34.7604 15.835 34.525C15.5997 34.2897 15.2805 34.1575 14.9477 34.1575Z" fill="#F36C21"/>
<path d="M62.3526 34.1575H55.0523C54.7195 34.1575 54.4003 34.2897 54.165 34.525C53.9296 34.7604 53.7974 35.0796 53.7974 35.4124C53.7974 35.7452 53.9296 36.0644 54.165 36.2997C54.4003 36.5351 54.7195 36.6673 55.0523 36.6673H62.3526C62.6854 36.6673 63.0046 36.5351 63.2399 36.2997C63.4753 36.0644 63.6075 35.7452 63.6075 35.4124C63.6075 35.0796 63.4753 34.7604 63.2399 34.525C63.0046 34.2897 62.6854 34.1575 62.3526 34.1575Z" fill="#F36C21"/>
<path d="M49.911 48.5485C49.6756 48.3132 49.3564 48.181 49.0236 48.181C48.6907 48.181 48.3715 48.3132 48.1362 48.5485C47.9008 48.7839 47.7686 49.1031 47.7686 49.4359C47.7686 49.7688 47.9008 50.088 48.1362 50.3233L50.7902 52.9773C50.9068 53.0939 51.0451 53.1863 51.1974 53.2494C51.3496 53.3124 51.5128 53.3449 51.6776 53.3449C51.8424 53.3449 52.0056 53.3124 52.1579 53.2494C52.3101 53.1863 52.4485 53.0939 52.565 52.9773C52.6815 52.8608 52.774 52.7225 52.837 52.5702C52.9001 52.418 52.9325 52.2548 52.9325 52.09C52.9325 51.9252 52.9001 51.762 52.837 51.6097C52.774 51.4575 52.6815 51.3191 52.565 51.2026L49.911 48.5485Z" fill="#F36C21"/>
<path d="M20.089 22.2762C20.3244 22.5115 20.6436 22.6437 20.9764 22.6437C21.3093 22.6437 21.6285 22.5115 21.8638 22.2762C22.0992 22.0408 22.2314 21.7216 22.2314 21.3888C22.2314 21.0559 22.0992 20.7367 21.8638 20.5014L19.2097 17.8474C18.9744 17.612 18.6552 17.4798 18.3224 17.4798C17.9895 17.4798 17.6704 17.612 17.435 17.8474C17.1997 18.0827 17.0674 18.4019 17.0674 18.7347C17.0674 19.0676 17.1997 19.3868 17.435 19.6221L20.089 22.2762Z" fill="#F36C21"/>
<path d="M50.7902 17.8474L48.1362 20.5014C47.9008 20.7368 47.7686 21.056 47.7686 21.3888C47.7686 21.7216 47.9008 22.0408 48.1362 22.2762C48.3715 22.5115 48.6907 22.6438 49.0236 22.6438C49.3564 22.6438 49.6756 22.5115 49.911 22.2762L52.565 19.6221C52.6815 19.5056 52.774 19.3672 52.837 19.215C52.9001 19.0627 52.9325 18.8995 52.9325 18.7347C52.9325 18.5699 52.9001 18.4067 52.837 18.2545C52.774 18.1022 52.6815 17.9639 52.565 17.8474C52.4485 17.7308 52.3101 17.6384 52.1579 17.5753C52.0056 17.5123 51.8424 17.4798 51.6776 17.4798C51.5128 17.4798 51.3496 17.5123 51.1974 17.5753C51.0451 17.6384 50.9068 17.7308 50.7902 17.8474Z" fill="#F36C21"/>
<path d="M20.089 48.5485L17.435 51.2026C17.1997 51.4379 17.0674 51.7571 17.0674 52.0899C17.0674 52.4228 17.1997 52.742 17.435 52.9773C17.6704 53.2127 17.9895 53.3449 18.3224 53.3449C18.6552 53.3449 18.9744 53.2127 19.2097 52.9773L21.8638 50.3232C22.0992 50.0879 22.2314 49.7687 22.2314 49.4359C22.2314 49.103 22.0992 48.7838 21.8638 48.5485C21.6285 48.3131 21.3093 48.1809 20.9764 48.1809C20.6436 48.1809 20.3244 48.3131 20.089 48.5485V48.5485Z" fill="#F36C21"/>
</g>
</svg>
